<svg width="133" height="60" viewBox="0 0 133 60" fill="none" xmlns="http://www.w3.org/2000/svg">
<path d="M101.937 29.4283L101.812 29.5773V27.8909C101.81 27.7705 101.762 27.6555 101.678 27.5709C101.594 27.4862 101.481 27.4387 101.363 27.4388H96.0811C95.963 27.4387 95.8496 27.4862 95.7656 27.5709C95.6816 27.6555 95.6337 27.7705 95.6323 27.8909V44.8286C95.633 44.888 95.6451 44.9467 95.6681 45.0013C95.691 45.0559 95.7242 45.1053 95.7659 45.1468C95.8076 45.1883 95.8569 45.221 95.911 45.2431C95.9651 45.2652 96.0229 45.2762 96.0811 45.2755H101.363C101.421 45.2762 101.479 45.2652 101.533 45.2431C101.587 45.221 101.636 45.1883 101.678 45.1468C101.72 45.1053 101.753 45.0559 101.776 45.0013C101.799 44.9467 101.811 44.888 101.812 44.8286V33.95C102.137 33.5207 102.556 33.1739 103.035 32.9368C103.514 32.6996 104.04 32.5785 104.572 32.5828C106.253 32.5828 107.104 33.4287 107.104 35.0937V44.8499C107.104 44.9093 107.116 44.9679 107.139 45.0225C107.162 45.0771 107.196 45.1266 107.237 45.1681C107.279 45.2096 107.328 45.2423 107.382 45.2644C107.436 45.2864 107.494 45.2974 107.552 45.2967H112.834C112.892 45.2974 112.95 45.2864 113.004 45.2644C113.058 45.2423 113.108 45.2096 113.149 45.1681C113.191 45.1266 113.224 45.0771 113.247 45.0225C113.27 44.9679 113.282 44.9093 113.283 44.8499V32.386C113.283 29.0666 111.195 27.0664 107.699 27.0664C104.447 27.0664 102.683 28.5346 101.921 29.4123" fill="#EF3340"/>
<path d="M67.095 27.4545H61.996C61.8788 27.4545 61.7662 27.5012 61.6823 27.5847C61.5984 27.6682 61.5499 27.7819 61.5472 27.9014V37.6575C61.5031 38.403 61.1814 39.1032 60.648 39.6151C60.1145 40.127 59.4095 40.4121 58.6768 40.4121C57.9441 40.4121 57.239 40.127 56.7055 39.6151C56.1721 39.1032 55.8505 38.403 55.8064 37.6575V27.8907C55.8036 27.7712 55.7551 27.6576 55.6712 27.5741C55.5874 27.4906 55.4747 27.4438 55.3575 27.4438H50.2586C50.1418 27.4438 50.0298 27.4908 49.9468 27.5744C49.8637 27.6581 49.8163 27.7717 49.8149 27.8907V37.8278C49.8149 42.7431 53.129 45.6795 58.6872 45.6795C64.2454 45.6795 67.5594 42.7325 67.5594 37.8012V27.8907C67.558 27.7717 67.5107 27.6581 67.4277 27.5744C67.3446 27.4908 67.2326 27.4438 67.1158 27.4438" fill="#EF3340"/>
<path d="M95.815 23.4118L98.461 25.3482C98.5365 25.4052 98.628 25.436 98.722 25.436C98.8159 25.436 98.9074 25.4052 98.9829 25.3482L101.624 23.4118C101.68 23.3706 101.726 23.3163 101.758 23.2534C101.79 23.1905 101.806 23.1208 101.806 23.0501V19.7892C101.805 19.6702 101.758 19.5565 101.675 19.4729C101.592 19.3892 101.479 19.3423 101.363 19.3423H96.0811C96.0229 19.3416 95.9651 19.3526 95.911 19.3747C95.8569 19.3968 95.8076 19.4295 95.7659 19.471C95.7242 19.5125 95.691 19.5619 95.6681 19.6165C95.6451 19.6711 95.633 19.7298 95.6323 19.7892V23.0501C95.6325 23.1208 95.6492 23.1905 95.6809 23.2534C95.7127 23.3163 95.7586 23.3706 95.815 23.4118Z" fill="#EF3340"/>
<path d="M45.3266 20.6241H39.5857C39.2841 20.6239 38.9896 20.7168 38.7409 20.8906C38.4921 21.0643 38.3009 21.3108 38.1923 21.5976L34.1267 32.689H33.5213L29.4975 21.6029C29.3897 21.3151 29.1988 21.0675 28.95 20.8927C28.7012 20.718 28.4062 20.6243 28.104 20.6241H22.3631C22.1679 20.6227 21.9743 20.6608 21.7935 20.7361C21.6128 20.8115 21.4485 20.9226 21.3102 21.0631C21.1718 21.2036 21.0622 21.3707 20.9877 21.5546C20.9131 21.7386 20.875 21.9358 20.8757 22.1348V44.2964C20.8764 44.4249 20.902 44.5521 20.9509 44.6706C20.9997 44.7891 21.0711 44.8965 21.1607 44.9869C21.2504 45.0773 21.3566 45.1489 21.4734 45.1974C21.5902 45.2459 21.7151 45.2706 21.8412 45.2699H25.8964C26.0225 45.2706 26.1475 45.2459 26.2643 45.1974C26.3811 45.1489 26.4873 45.0773 26.577 44.9869C26.6666 44.8965 26.7379 44.7891 26.7868 44.6706C26.8357 44.5521 26.8612 44.4249 26.8619 44.2964V30.3909H27.3838V30.4388L32.2165 42.9824C32.2883 43.1655 32.4121 43.3226 32.572 43.4335C32.732 43.5444 32.9207 43.6041 33.1142 43.6048H34.4764C34.6703 43.6063 34.86 43.5475 35.0204 43.4363C35.1807 43.3251 35.3041 43.1668 35.374 42.9824L40.259 30.3909H40.7809V44.2804C40.7816 44.409 40.8071 44.5361 40.856 44.6546C40.9049 44.7731 40.9762 44.8806 41.0658 44.971C41.1555 45.0614 41.2617 45.1329 41.3785 45.1815C41.4953 45.23 41.6203 45.2546 41.7464 45.2539H45.8015C45.9276 45.2546 46.0526 45.23 46.1694 45.1815C46.2861 45.1329 46.3924 45.0614 46.482 44.971C46.5717 44.8806 46.643 44.7731 46.6919 44.6546C46.7408 44.5361 46.7663 44.409 46.767 44.2804V22.1348C46.7642 21.7365 46.6067 21.3555 46.3289 21.0753C46.0511 20.7952 45.6757 20.6386 45.2848 20.64" fill="#EF3340"/>
<path d="M70.6125 44.8231C70.6107 44.883 70.6208 44.9426 70.6423 44.9984C70.6638 45.0542 70.6964 45.105 70.7377 45.1475C70.7796 45.19 70.8293 45.2236 70.8839 45.2464C70.9385 45.2692 70.9971 45.2808 71.0561 45.2805H76.1237C76.2409 45.2806 76.3536 45.2338 76.4375 45.1503C76.5213 45.0668 76.5698 44.9531 76.5725 44.8337V32.7741H82.8353V44.8231C82.8353 44.943 82.882 45.058 82.9652 45.1428C83.0484 45.2276 83.1612 45.2752 83.2789 45.2752H88.3726C88.4313 45.2759 88.4895 45.2647 88.5439 45.2423C88.5984 45.2199 88.6479 45.1867 88.6896 45.1447C88.7314 45.1026 88.7646 45.0525 88.7872 44.9973C88.8098 44.9421 88.8214 44.8829 88.8214 44.8231V32.7741H92.4747C92.5914 32.7741 92.7035 32.7272 92.7865 32.6435C92.8696 32.5599 92.917 32.4462 92.9183 32.3272V27.8854C92.917 27.7673 92.8704 27.6544 92.7884 27.5709C92.7065 27.4874 92.5957 27.4399 92.4799 27.4385L88.8266 27.4066V26.5555C88.8266 25.5501 89.6512 25.0979 90.4654 25.0979C90.9508 25.1197 91.4176 25.2944 91.8015 25.5979C91.8113 25.6027 91.8219 25.6051 91.8327 25.6051C91.8436 25.6051 91.8543 25.6027 91.8641 25.5979C91.888 25.5919 91.9086 25.5767 91.9215 25.5554L93.7116 22.3636C93.7219 22.3478 93.7274 22.3294 93.7274 22.3104C93.7274 22.2915 93.7219 22.2729 93.7116 22.2572C92.6313 21.1294 91.0238 20.5283 89.0511 20.5283C85.3978 20.5283 82.8562 23.002 82.8562 26.5395V27.4545H82.7257C82.2612 27.4545 78.2322 27.4279 76.656 27.4279H76.583V26.5767C76.583 25.5713 77.4076 25.1192 78.2217 25.1192C78.707 25.1417 79.1735 25.3163 79.5577 25.6192C79.5675 25.6239 79.5783 25.6264 79.5891 25.6264C79.5999 25.6264 79.6106 25.6239 79.6204 25.6192C79.6315 25.6162 79.6419 25.6108 79.6509 25.6035C79.6599 25.5962 79.6673 25.587 79.6726 25.5766L81.4627 22.3849C81.4745 22.3698 81.481 22.351 81.481 22.3317C81.481 22.3123 81.4745 22.2936 81.4627 22.2785C80.3823 21.1507 78.7697 20.5496 76.8022 20.5496C73.1489 20.5496 70.6021 23.0232 70.6021 26.5608L70.6125 44.8231Z" fill="#EF3340"/>
</svg>
