<svg width="101" height="47" viewBox="0 0 101 47" fill="none" xmlns="http://www.w3.org/2000/svg">
<g clip-path="url(#clip0_930_439)">
<path d="M9.30449 34.2857C7.54655 33.4921 6.10077 32.8466 6.10077 31.5503C6.10077 30.5556 6.92223 29.836 8.54326 29.836C9.1402 29.836 9.6276 29.9048 10.1314 29.9947C10.3943 30.037 10.6791 30.0741 10.9091 30.0741C12.3275 30.0741 13.1271 29.2593 13.6583 27.709L13.8773 27.0741C13.6528 26.9841 11.3363 26 8.31325 26C3.50493 26 0.969332 28.9735 0.974809 32.0635C0.974809 33.6243 1.47864 34.7513 2.27273 35.6402C3.29135 36.7831 4.74261 37.5344 6.10077 38.1746C8.07777 39.1111 9.86857 39.8095 9.86857 41.2011C9.86857 42.4339 8.54874 43.1376 6.78532 43.1376C4.36473 43.1376 2.2563 41.8042 1.98795 41.6402L0 45.2381C0.350493 45.4286 2.908 47 7.11939 47C11.6046 47 15 44.5132 15 40.6931C15 36.873 11.8565 35.4815 9.30449 34.291V34.2857Z" fill="#8A8D8F"/>
<path d="M26.2017 36.4426L33.5966 27H28.328L22.432 35.1462H22.3424V27H18V47H18.2589C20.1363 47 22.3722 46.0926 22.3722 42.831V38.2367H22.4569L28.4725 46.7511H34L26.2017 36.4374V36.4426Z" fill="#8A8D8F"/>
<path d="M34.547 5C32.9908 5.30436 30.6843 6.7632 30.6894 9.35028C30.6945 11.7012 32.5498 13.1233 32.5548 16.2037C32.565 18.5179 31.3332 20.0764 30 20.9423C30.5373 20.8951 31.1304 20.8583 31.7793 20.8583C33.1429 20.8583 33.9641 20.9895 34.0147 21L41 12.1315C39.0636 9.12463 36.7977 6.79469 34.5521 5.00525L34.547 5Z" fill="#8A8D8F"/>
<path d="M40.297 28.9894C41.2222 27.5582 41.3339 25.2788 41.4137 22.957C41.4987 20.7889 41.9561 19.1615 44.8595 19.1509C45.5029 19.1509 46.1198 19.2357 47.2312 19.2357C51.4906 19.2145 54.2718 17.7568 56 16.7973C52.4638 14.5497 47.3056 12.2597 40.9032 12C40.4884 13.1715 37.2393 22.1618 37 22.8881C37.0372 22.9305 37.6062 23.5666 38.3135 24.807C39.361 26.5033 39.9247 27.9451 40.297 29V28.9894Z" fill="#8A8D8F"/>
<path d="M24.8482 22C24.4817 22 24.2984 21.7585 24.2513 21.3384C24.2042 20.9184 22.4031 4.3685 22.1309 1.86396C22.0942 1.49642 22 0.829594 22 0.588067C22 0.199523 22.2513 0 22.5445 0C23.3979 0 28.0576 1.09212 33 4.56802C31.5759 4.97231 29 6.45823 29.0105 9.52983C29.0209 12.2496 30.9633 13.7513 30.9738 16.4816C30.9895 20.9236 25.9005 22 24.8429 22H24.8482Z" fill="#8A8D8F"/>
<path d="M41 30.2417C41.0775 30.4401 41.1498 30.608 41.2222 30.7301C41.3358 30.9184 41.4805 31.0049 41.6613 30.9998C41.775 30.9998 41.9145 30.9642 42.0695 30.8929C42.4467 30.725 57.311 23.9122 59.5482 22.8895C59.8737 22.7369 60.4885 22.4672 60.6952 22.3502C60.907 22.2332 61 22.0602 61 21.8821C61 21.7804 60.969 21.6837 60.9173 21.5921C60.6383 21.1444 59.1968 19.6434 56.7944 18C54.8827 19.0329 51.9016 20.6356 47.4686 20.6559C46.3836 20.6559 46.1356 20.5847 45.3968 20.5898C43.232 20.5949 42.6895 21.5056 42.612 23.378C42.5965 23.7291 42.5913 24.2073 42.5707 24.7263C42.5035 26.3952 42.302 28.7 41.0052 30.2417H41Z" fill="#8A8D8F"/>
<path d="M97.3756 32.6556V31H86.5258V32.6556H89.8339L86 42H88.6344L92.0301 33.6357L95.0534 41.3195C95.2451 41.7562 95.6997 41.9898 96.0995 42H98L94.0621 32.6556H97.3811H97.3756Z" fill="#8A8D8F"/>
<path d="M99 31V47H99.5322C100.343 47 101 46.1961 101 45.203V31H99Z" fill="#8A8D8F"/>
<path d="M80.5948 31V35.1511H75V36.864H80.5948V47H81.2348C82.2052 47 83 46.1961 83 45.203V31H80.5948Z" fill="#8A8D8F"/>
<path d="M71.3568 31.0052H69V40.2246C69 41.2058 69.7755 42 70.7334 42H79V40.3077H71.3568V31V31.0052Z" fill="#8A8D8F"/>
<path d="M63 31V47H63.5322C64.3391 47 65 46.1961 65 45.203V31H63Z" fill="#8A8D8F"/>
<path d="M59.5246 35.9518H58.4409C58.1965 33.1496 56.7357 31 54.239 31C51.498 31 50 33.595 50 36.7909C50 39.9867 51.498 42.5869 54.239 42.5869C56.7357 42.5869 58.2019 40.4374 58.4409 37.6352H59.5246V47H60.1833C61.1819 47 62 46.2075 62 45.2286V31.2279H59.5246V35.9518ZM54.239 40.9035C53.0757 40.9035 52.4861 39.0647 52.4861 36.7961C52.4861 34.5274 53.0757 32.6886 54.239 32.6886C55.4024 32.6886 55.992 34.5274 55.992 36.7961C55.992 39.0647 55.4024 40.9035 54.239 40.9035Z" fill="#8A8D8F"/>
</g>
<defs>
<clipPath id="clip0_930_439">
<rect width="101" height="47" fill="white"/>
</clipPath>
</defs>
</svg>
