<svg width="220" height="45" viewBox="0 0 220 45" fill="none" xmlns="http://www.w3.org/2000/svg">
<g clip-path="url(#clip0_87_207)">
<g clip-path="url(#clip1_87_207)">
<path d="M20.4341 32.9215C18.8396 32.1764 17.5283 31.5704 17.5283 30.3535C17.5283 29.4197 18.2734 28.7442 19.7436 28.7442C20.2851 28.7442 20.7271 28.8088 21.1841 28.8932C21.4225 28.9329 21.6808 28.9677 21.8894 28.9677C23.1759 28.9677 23.9011 28.2028 24.3829 26.7474L24.5816 26.1514C24.3779 26.0669 22.2768 25.1431 19.535 25.1431C15.1739 25.1431 12.8742 27.9346 12.8792 30.8353C12.8792 32.3006 13.3361 33.3586 14.0564 34.1931C14.9802 35.2659 16.2965 35.9713 17.5283 36.5723C19.3214 37.4514 20.9457 38.1071 20.9457 39.4134C20.9457 40.5708 19.7486 41.2314 18.1492 41.2314C15.9538 41.2314 14.0415 39.9797 13.7981 39.8257L11.995 43.2033C12.3129 43.3821 14.6325 44.8573 18.4522 44.8573C22.5202 44.8573 25.5998 42.5228 25.5998 38.9366C25.5998 35.3504 22.7487 34.044 20.4341 32.9265V32.9215Z" fill="white"/>
<path d="M36.3436 34.5855L43.7196 25.5405H38.4645L32.5835 33.3438H32.4941V25.5405H28.1628V44.6985H28.4211C30.2937 44.6985 32.5239 43.8292 32.5239 40.705V36.3041H32.6083L38.6085 44.4601H44.122L36.3436 34.5806V34.5855Z" fill="white"/>
<path d="M43.963 5.02148C42.4381 5.30957 40.1781 6.69042 40.1831 9.13918C40.1881 11.3644 42.006 12.7105 42.011 15.6262C42.0209 17.8166 40.8139 19.2919 39.5076 20.1114C40.0341 20.0667 40.6152 20.0319 41.251 20.0319C42.5871 20.0319 43.3918 20.1561 43.4415 20.1661L50.2861 11.7717C48.3887 8.92559 46.1684 6.72022 43.968 5.02645L43.963 5.02148Z" fill="white"/>
<path d="M49.7149 27.6914C50.5792 26.3503 50.6835 24.2145 50.758 22.0389C50.8374 20.0074 51.2646 18.4825 53.9766 18.4725C54.5776 18.4725 55.1538 18.552 56.1919 18.552C60.1706 18.5321 62.7683 17.1662 64.3826 16.2672C61.0795 14.1611 56.2615 12.0154 50.2811 11.772C49.8937 12.8697 46.8588 21.2938 46.6353 21.9743C46.6701 22.0141 47.2016 22.6101 47.8622 23.7724C48.8407 25.3619 49.3672 26.7129 49.7149 27.7013V27.6914Z" fill="white"/>
<path d="M35.2607 20.812C34.913 20.812 34.7392 20.5835 34.6945 20.1861C34.6498 19.7888 32.9411 4.13259 32.6828 1.76331C32.6481 1.41561 32.5587 0.784796 32.5587 0.556311C32.5587 0.188748 32.7971 0 33.0752 0C33.8849 0 38.3055 1.03315 42.9945 4.32134C41.6434 4.70381 39.1996 6.10948 39.2095 9.01521C39.2195 11.5882 41.0623 13.0087 41.0722 15.5916C41.0871 19.7937 36.2591 20.812 35.2558 20.812H35.2607Z" fill="white"/>
<path d="M50.1073 28.8091C50.1818 29.0029 50.2513 29.1668 50.3209 29.286C50.4301 29.4698 50.5692 29.5542 50.7431 29.5492C50.8523 29.5492 50.9864 29.5145 51.1355 29.4449C51.498 29.281 65.7883 22.6301 67.939 21.6317C68.2519 21.4827 68.843 21.2195 69.0417 21.1052C69.2454 20.991 69.3348 20.8221 69.3348 20.6483C69.3348 20.5489 69.305 20.4546 69.2553 20.3651C68.9871 19.928 67.6013 18.4628 65.2916 16.8584C63.4538 17.8667 60.5878 19.4313 56.326 19.4512C55.2829 19.4512 55.0445 19.3817 54.3342 19.3866C52.253 19.3916 51.7315 20.2807 51.657 22.1086C51.6421 22.4513 51.6371 22.9182 51.6173 23.4249C51.5527 25.054 51.359 27.3041 50.1122 28.8091H50.1073Z" fill="white"/>
<path d="M103.245 30.9498V29.3306H93.4052V30.9498H96.4053L92.9283 40.0892H95.3175L98.3971 31.9085L101.139 39.4236C101.313 39.8508 101.725 40.0793 102.088 40.0892H103.811L100.24 30.9498H103.25H103.245Z" fill="white"/>
<path d="M104.685 29.3354V44.4601H105.301C106.24 44.4601 107 43.7002 107 42.7614V29.3354H104.685Z" fill="white"/>
<path d="M87.8718 29.3354V33.2594H82.4875V34.8787H87.8718V44.4601H88.4878C89.4216 44.4601 90.1865 43.7002 90.1865 42.7614V29.3354H87.8718Z" fill="white"/>
<path d="M78.9609 29.3355H76.6512V38.157C76.6512 39.0958 77.4112 39.8558 78.35 39.8558H86.4513V38.2365H78.9609V29.3306V29.3355Z" fill="white"/>
<path d="M71.0037 29.3354V44.4601H71.6196C72.5534 44.4601 73.3183 43.7002 73.3183 42.7614V29.3354H71.0037Z" fill="white"/>
<path d="M67.7602 33.8603H66.7469C66.5185 31.1731 65.1525 29.1118 62.818 29.1118C60.255 29.1118 58.8543 31.6003 58.8543 34.665C58.8543 37.7297 60.255 40.2231 62.818 40.2231C65.1525 40.2231 66.5234 38.1618 66.7469 35.4746H67.7602V44.4551H68.3761C69.3099 44.4551 70.0749 43.6951 70.0749 42.7563V29.3304H67.7602V33.8603ZM62.818 38.6088C61.7302 38.6088 61.1789 36.8455 61.1789 34.67C61.1789 32.4944 61.7302 30.7311 62.818 30.7311C63.9058 30.7311 64.4571 32.4944 64.4571 34.67C64.4571 36.8455 63.9058 38.6088 62.818 38.6088Z" fill="white"/>
</g>
<g clip-path="url(#clip2_87_207)">
<path d="M202.193 22.1929C199.962 22.1929 198.759 23.1884 198.241 23.7809L197.924 24.144V22.6996C197.924 22.556 197.808 22.4402 197.664 22.4402H194.111C193.968 22.4402 193.852 22.556 193.852 22.6996V34.3463C193.852 34.4879 193.968 34.6056 194.111 34.6056H197.664C197.806 34.6056 197.924 34.4899 197.924 34.3463V26.7953L197.969 26.7434C198.277 26.3943 198.849 25.7459 200.002 25.7459C201.267 25.7459 201.908 26.3783 201.908 27.6272V34.3463C201.908 34.4879 202.023 34.6056 202.167 34.6056H205.72C205.862 34.6056 205.979 34.4899 205.979 34.3463V25.7559C205.979 23.5255 204.565 22.1929 202.195 22.1929H202.193Z" fill="#F4F4F5"/>
<path d="M173.697 22.4439H170.169C170.056 22.4439 169.962 22.5377 169.962 22.6514V29.4203C169.962 30.5335 169.026 31.4033 167.831 31.4033C166.636 31.4033 165.683 30.5315 165.683 29.4203V22.6514C165.683 22.5377 165.591 22.4439 165.475 22.4439H161.948C161.834 22.4439 161.741 22.5377 161.741 22.6514V29.546C161.741 32.8916 164.017 34.8866 167.829 34.8866C171.642 34.8866 173.9 32.8836 173.9 29.5261V22.6494C173.9 22.5357 173.808 22.4419 173.693 22.4419L173.697 22.4439Z" fill="#F4F4F5"/>
<path d="M193.926 19.3998L195.779 20.7504C195.843 20.7982 195.931 20.7982 195.994 20.7504L197.848 19.3998C197.896 19.3658 197.924 19.31 197.924 19.2521V16.9838C197.924 16.8821 197.842 16.8003 197.74 16.8003H194.035C193.934 16.8003 193.852 16.8821 193.852 16.9838V19.2521C193.852 19.31 193.88 19.3658 193.928 19.3998H193.926Z" fill="#F4F4F5"/>
<path d="M158.445 17.6919H154.425C154.046 17.6919 153.701 17.9313 153.569 18.2884L150.639 26.0967H150.138L147.221 18.2904C147.089 17.9333 146.746 17.6919 146.365 17.6919H142.347C141.845 17.6919 141.436 18.1009 141.436 18.6036V34.0408C141.436 34.342 141.681 34.5874 141.982 34.5874H144.827C145.128 34.5874 145.374 34.342 145.374 34.0408V24.2354H145.96L149.396 33.0892C149.477 33.2986 149.681 33.4383 149.906 33.4383H150.86C151.087 33.4383 151.287 33.3006 151.369 33.0892L154.824 24.2354H155.414V34.0408C155.414 34.342 155.66 34.5874 155.961 34.5874H158.806C159.107 34.5874 159.353 34.342 159.353 34.0408V18.6036C159.353 18.1009 158.944 17.6919 158.441 17.6919H158.445Z" fill="#F4F4F5"/>
<path d="M176.304 34.1108L176.286 22.2386V21.696C176.286 19.308 178.02 17.6402 180.501 17.6402C181.796 17.6402 182.863 18.0133 183.594 18.7215C183.622 18.7474 183.628 18.7913 183.608 18.8232L182.449 20.8781C182.125 20.6626 181.808 20.5529 181.505 20.5529C180.888 20.5529 180.224 20.91 180.224 21.694V22.4162H180.404C180.404 22.4162 184.669 22.4381 184.699 22.4381H184.882V21.692C184.882 19.304 186.616 17.6362 189.098 17.6362C190.393 17.6362 191.46 18.0093 192.19 18.7175C192.218 18.7434 192.224 18.7873 192.204 18.8193L191.045 20.8741C190.722 20.6586 190.404 20.5489 190.101 20.5489C189.485 20.5489 188.82 20.906 188.82 21.69V22.4122L191.45 22.4342C191.591 22.4342 191.707 22.5519 191.707 22.6935V25.6341C191.707 25.7757 191.591 25.8935 191.448 25.8935H188.82V34.3402C188.82 34.4818 188.705 34.5995 188.561 34.5995H185.14C184.998 34.5995 184.88 34.4838 184.88 34.3402V25.8935H180.222V34.3402C180.222 34.4838 180.106 34.5995 179.963 34.5995H176.543C176.41 34.5995 176.302 34.4918 176.302 34.3582V34.1048L176.304 34.1108Z" fill="#F4F4F5"/>
<path d="M210.43 6.60592C204.437 2.77356 197.004 2.26883 190.546 5.25532L184.392 8.10016C177.469 11.3001 169.529 11.3001 162.608 8.10016L156.454 5.25532C153.665 3.96457 150.694 3.32617 147.734 3.32617C143.844 3.32617 139.975 4.4294 136.57 6.60592C130.579 10.4383 127 16.9718 127 24.0859C127 35.5391 136.319 44.8577 147.772 44.8577H199.254C210.693 44.8577 220.002 35.5511 220.002 24.1099V24.0859C220.002 16.9718 216.423 10.4383 210.43 6.60592ZM216.222 24.1099C216.222 33.4663 208.611 41.0772 199.254 41.0772H147.772C138.403 41.0772 130.78 33.4544 130.78 24.0859C130.78 18.2686 133.707 12.924 138.609 9.78991C141.354 8.03632 144.51 7.10865 147.738 7.10865C150.208 7.10865 152.608 7.63932 154.87 8.68469L161.024 11.5295C164.97 13.3549 169.17 14.2786 173.501 14.2786H173.503C177.836 14.2786 182.036 13.3529 185.982 11.5295L192.136 8.68469C197.417 6.24283 203.496 6.65579 208.397 9.78991C213.299 12.924 216.225 18.2686 216.225 24.0859V24.1099H216.222Z" fill="#F4F4F5"/>
</g>
</g>
<defs>
<clipPath id="clip0_87_207">
<rect width="220" height="44.8575" fill="white"/>
</clipPath>
<clipPath id="clip1_87_207">
<rect width="95" height="44.8575" fill="white" transform="translate(12)"/>
</clipPath>
<clipPath id="clip2_87_207">
<rect width="93" height="41.5315" fill="white" transform="translate(127 3.32617)"/>
</clipPath>
</defs>
</svg>
