<svg width="60" height="54" viewBox="0 0 60 54" fill="none" xmlns="http://www.w3.org/2000/svg">
<g clip-path="url(#clip0_376_437)">
<path d="M47.9775 33.8528C48.1185 33.3747 48.7956 33.3747 48.9366 33.8528L50.4292 38.9148C50.4772 39.0776 50.6046 39.2049 50.7674 39.2529L55.8301 40.7452C56.3082 40.8861 56.3082 41.5633 55.8301 41.7043L50.7674 43.1965C50.6046 43.2445 50.4772 43.3718 50.4292 43.5347L48.9366 48.5966C48.7956 49.0747 48.1185 49.0747 47.9775 48.5966L46.4848 43.5347C46.4368 43.3718 46.3095 43.2445 46.1467 43.1965L41.084 41.7043C40.6059 41.5633 40.6059 40.8861 41.084 40.7452L46.1467 39.2529C46.3095 39.2049 46.4368 39.0776 46.4848 38.9148L47.9775 33.8528Z" fill="#FBCC56"/>
<path d="M46.2955 12.8022C45.9835 12.3032 45.4365 12 44.848 12H16.6516C16.0631 12 15.5161 12.3032 15.2041 12.8023L6.68579 26.4317C6.28027 27.0805 6.35607 27.9199 6.87125 28.4856L29.4878 53.32C30.1649 54.0635 31.3347 54.0635 32.0118 53.32L54.6287 28.4857C55.1439 27.9199 55.2197 27.0805 54.8142 26.4317L46.2955 12.8022Z" fill="#E0E6FC"/>
<mask id="mask0_376_437" style="mask-type:alpha" maskUnits="userSpaceOnUse" x="6" y="11" width="50" height="43">
<path d="M46.2955 12.7983C45.9835 12.2993 45.4365 11.9961 44.848 11.9961H16.6516C16.0631 11.9961 15.5161 12.2993 15.2041 12.7983L6.68579 26.4278C6.28027 27.0766 6.35607 27.916 6.87125 28.4817L29.4878 53.3161C30.1649 54.0596 31.3347 54.0596 32.0118 53.3161L54.6287 28.4817C55.1439 27.916 55.2197 27.0766 54.8142 26.4277L46.2955 12.7983Z" fill="#F3F4F6"/>
</mask>
<g mask="url(#mask0_376_437)">
<rect x="5.14648" y="27.3633" width="51.2073" height="27.3107" fill="url(#paint0_linear_376_437)"/>
</g>
<mask id="mask1_376_437" style="mask-type:alpha" maskUnits="userSpaceOnUse" x="6" y="11" width="50" height="43">
<path d="M46.2955 12.7983C45.9835 12.2993 45.4365 11.9961 44.848 11.9961H16.6516C16.0631 11.9961 15.5161 12.2993 15.2041 12.7983L6.68579 26.4278C6.28027 27.0766 6.35607 27.916 6.87125 28.4817L29.4878 53.3161C30.1649 54.0596 31.3347 54.0596 32.0118 53.3161L54.6287 28.4817C55.1439 27.916 55.2197 27.0766 54.8142 26.4277L46.2955 12.7983Z" fill="#C4D1FD"/>
</mask>
<g mask="url(#mask1_376_437)">
<path d="M14.548 8.57812L30.3369 54.2382L2.59961 27.3542L14.548 8.57812Z" fill="url(#paint1_linear_376_437)"/>
<path d="M46.5516 8.57812L30.7627 54.2382L58.5 27.3542L46.5516 8.57812Z" fill="url(#paint2_linear_376_437)"/>
</g>
<mask id="mask2_376_437" style="mask-type:alpha" maskUnits="userSpaceOnUse" x="6" y="11" width="50" height="43">
<path d="M46.2955 12.7983C45.9835 12.2993 45.4365 11.9961 44.848 11.9961H16.6516C16.0631 11.9961 15.5161 12.2993 15.2041 12.7983L6.68579 26.4278C6.28027 27.0766 6.35607 27.916 6.87125 28.4817L29.4878 53.3161C30.1649 54.0596 31.3347 54.0596 32.0118 53.3161L54.6287 28.4817C55.1439 27.916 55.2197 27.0766 54.8142 26.4277L46.2955 12.7983Z" fill="#F3F4F6"/>
</mask>
<g mask="url(#mask2_376_437)">
<path d="M15.706 11.9961H45.7944L55.5004 27.5257H6L15.706 11.9961Z" fill="url(#paint3_linear_376_437)"/>
</g>
<path d="M5.68027 3.21732C5.77425 2.89856 6.22575 2.89856 6.31973 3.21732L7.31479 6.59255C7.3468 6.70111 7.4317 6.78601 7.54026 6.81802L10.9155 7.81308C11.2343 7.90706 11.2343 8.35856 10.9155 8.45254L7.54026 9.44761C7.4317 9.47961 7.3468 9.56451 7.31479 9.67307L6.31973 13.0483C6.22575 13.3671 5.77425 13.3671 5.68027 13.0483L4.68521 9.67307C4.6532 9.56451 4.5683 9.47961 4.45974 9.44761L1.08451 8.45254C0.765743 8.35856 0.765743 7.90706 1.08451 7.81308L4.45974 6.81802C4.5683 6.78601 4.6532 6.70111 4.68521 6.59255L5.68027 3.21732Z" fill="#FBCC56"/>
<g filter="url(#filter0_d_376_437)">
<path d="M21.5384 17.4298C21.6229 17.1428 22.0294 17.1428 22.114 17.4298L23.8292 23.2498C23.858 23.3475 23.9344 23.424 24.0321 23.4528L29.8503 25.1687C30.1372 25.2533 30.1372 25.6597 29.8503 25.7443L24.0321 27.4603C23.9344 27.4891 23.858 27.5655 23.8292 27.6633L22.114 33.4833C22.0294 33.7703 21.6229 33.7703 21.5384 33.4833L19.8232 27.6633C19.7944 27.5655 19.718 27.4891 19.6202 27.4603L13.802 25.7443C13.5151 25.6597 13.5151 25.2533 13.802 25.1687L19.6202 23.4528C19.718 23.424 19.7944 23.3475 19.8232 23.2498L21.5384 17.4298Z" fill="white"/>
</g>
</g>
<defs>
<filter id="filter0_d_376_437" x="9.08679" y="14.2145" width="25.4788" height="25.484" filterUnits="userSpaceOnUse" color-interpolation-filters="sRGB">
<feFlood flood-opacity="0" result="BackgroundImageFix"/>
<feColorMatrix in="SourceAlpha" type="matrix" values="0 0 0 0 0 0 0 0 0 0 0 0 0 0 0 0 0 0 127 0" result="hardAlpha"/>
<feOffset dy="1.5"/>
<feGaussianBlur stdDeviation="2.25"/>
<feComposite in2="hardAlpha" operator="out"/>
<feColorMatrix type="matrix" values="0 0 0 0 0.160784 0 0 0 0 0.188235 0 0 0 0 0.32549 0 0 0 0.3 0"/>
<feBlend mode="normal" in2="BackgroundImageFix" result="effect1_dropShadow_376_437"/>
<feBlend mode="normal" in="SourceGraphic" in2="effect1_dropShadow_376_437" result="shape"/>
</filter>
<linearGradient id="paint0_linear_376_437" x1="30.7501" y1="27.3633" x2="30.7501" y2="54.674" gradientUnits="userSpaceOnUse">
<stop stop-color="#86A7EC"/>
<stop offset="1" stop-color="#88ABED" stop-opacity="0"/>
</linearGradient>
<linearGradient id="paint1_linear_376_437" x1="5.5867" y1="25.2206" x2="29.9103" y2="54.2381" gradientUnits="userSpaceOnUse">
<stop stop-color="#6F7FD6" stop-opacity="0.8"/>
<stop offset="1" stop-color="#6F7FD6" stop-opacity="0"/>
</linearGradient>
<linearGradient id="paint2_linear_376_437" x1="55.5129" y1="25.2206" x2="31.1893" y2="54.2381" gradientUnits="userSpaceOnUse">
<stop stop-color="#6F7FD6" stop-opacity="0.8"/>
<stop offset="1" stop-color="#6F7FD6" stop-opacity="0"/>
</linearGradient>
<linearGradient id="paint3_linear_376_437" x1="30.7502" y1="11.9961" x2="30.7502" y2="27.5257" gradientUnits="userSpaceOnUse">
<stop stop-color="#92BAF5"/>
<stop offset="1" stop-color="#8CB5F4" stop-opacity="0"/>
</linearGradient>
<clipPath id="clip0_376_437">
<rect width="61.875" height="54.0718" fill="white" transform="translate(-0.375 -0.855469)"/>
</clipPath>
</defs>
</svg>
